<?xml version="1.0" encoding="UTF-8"?><svg id="Layer_1" xmlns="http://www.w3.org/2000/svg" viewBox="0 0 715 715"><defs><style>.cls-1{fill:#fff;}.cls-2{fill:#db324f;}</style></defs><circle class="cls-2" cx="357.5" cy="357.5" r="357.5"/><path class="cls-1" d="m529.09,206.26v59.73c0,9.38-3.86,18.17-10.5,24.07-5.1,4.49-11.36,6.89-17.72,6.89-2.03,0-3.99-.27-5.96-.74l-92.21-21.54v197.9c0,52.61-48.59,95.45-108.36,95.45s-108.36-42.82-108.36-95.45,48.59-95.5,108.36-95.5c22.29,0,43,5.95,60.2,16.11l-.02-220.23c0-14.55,10.78-26.34,24.08-26.34,1.54,0,3.03.16,4.48.47l1.15.27,122.47,28.66c12.96,3,22.39,15.74,22.39,30.23h.02Z"/></svg>